<svg width="141" height="144" viewBox="0 0 141 144" fill="none" xmlns="http://www.w3.org/2000/svg">
<path d="M103.028 58.0995L37.8712 20.8672M79.6831 7.52872L126.223 34.1219C129.074 35.7502 131.443 38.1034 133.091 40.9429C134.739 43.7824 135.607 47.0071 135.606 50.29V93.8332C135.607 97.1161 134.739 100.341 133.091 103.18C131.443 106.02 129.074 108.373 126.223 110.001L79.6831 136.594C76.8708 138.201 73.6882 139.046 70.4495 139.046C67.2108 139.046 64.0281 138.201 61.2159 136.594L14.6755 110.001C11.8249 108.373 9.45551 106.02 7.80774 103.18C6.15997 100.341 5.29239 97.1161 5.29297 93.8332V50.29C5.29239 47.0071 6.15997 43.7824 7.80774 40.9429C9.45551 38.1034 11.8249 35.7502 14.6755 34.1219L61.2159 7.52872C64.0281 5.92232 67.2108 5.07739 70.4495 5.07739C73.6882 5.07739 76.8708 5.92232 79.6831 7.52872Z" stroke="#DEBE80" stroke-width="9.30807" stroke-linecap="round" stroke-linejoin="round"/>
<path d="M9.94678 44.1373L61.6252 71.9685C64.3373 73.4284 67.3692 74.1926 70.4492 74.1926C73.5293 74.1926 76.5612 73.4284 79.2733 71.9685L130.952 44.1373M70.4492 76.7156V137.218" stroke="#DEBE80" stroke-width="9.30807" stroke-linecap="round" stroke-linejoin="round"/>
</svg>
