<svg width="139" height="148" viewBox="0 0 139 148" fill="none" xmlns="http://www.w3.org/2000/svg">
<path d="M108.966 28.5269C113.339 29.3919 117.352 30.9296 121.004 33.1402C124.656 35.3507 127.804 38.0418 130.447 41.2134C133.09 44.3851 135.18 47.9892 136.718 52.0259C138.256 56.0625 139.001 60.3154 138.953 64.7845C138.953 69.6381 138.064 74.2274 136.286 78.5524C134.508 82.8773 132.033 86.7217 128.861 90.0856C125.69 93.4495 122.013 96.1406 117.833 98.1589C113.652 100.177 109.11 101.331 104.209 101.619C100.797 106.713 96.52 110.87 91.3781 114.089C86.2362 117.309 80.5657 119.255 74.3665 119.928V147.824H65.1399V119.928C58.9889 119.255 53.3424 117.309 48.2005 114.089C43.0586 110.87 38.7576 106.713 35.2976 101.619C30.4441 101.379 25.9028 100.249 21.674 98.231C17.4451 96.2127 13.7689 93.5216 10.6453 90.1577C7.52172 86.7938 5.0709 82.9494 3.29286 78.6244C1.51482 74.2995 0.601766 69.6862 0.553711 64.7845C0.553711 60.3154 1.29857 56.0865 2.78828 52.098C4.27799 48.1094 6.34437 44.5052 8.9874 41.2855C11.6304 38.0658 14.8021 35.3507 18.5023 33.1402C22.2026 30.9296 26.2152 29.3919 30.5402 28.5269C31.9338 24.298 33.9281 20.4536 36.5231 16.9936C39.118 13.5336 42.1215 10.5542 45.5334 8.05533C48.9453 5.55646 52.7177 3.63425 56.8504 2.28871C60.9832 0.943159 65.2841 0.246358 69.7532 0.198303C74.2224 0.198303 78.4993 0.871077 82.584 2.21662C86.6687 3.56217 90.441 5.50841 93.901 8.05533C97.361 10.6023 100.388 13.5817 102.983 16.9936C105.578 20.4055 107.573 24.2499 108.966 28.5269ZM102.046 92.4643C105.843 92.4643 109.423 91.7435 112.787 90.3019C116.151 88.8602 119.082 86.8899 121.581 84.3911C124.08 81.8922 126.074 78.9608 127.564 75.597C129.053 72.2331 129.774 68.629 129.726 64.7845C129.726 60.9882 129.005 57.4081 127.564 54.0442C126.122 50.6803 124.152 47.749 121.653 45.2501C119.154 42.7512 116.199 40.7569 112.787 39.2672C109.375 37.7775 105.795 37.0567 102.046 37.1047H101.83C101.782 37.1047 101.71 37.1287 101.614 37.1768C101.037 33.2363 99.8118 29.5841 97.9376 26.2202C96.0635 22.8563 93.7088 19.9009 90.8735 17.354C88.0383 14.8071 84.8186 12.8609 81.2144 11.5153C77.6103 10.1698 73.7899 9.47296 69.7532 9.42491C65.7166 9.42491 61.8962 10.1217 58.2921 11.5153C54.6879 12.9089 51.4682 14.8551 48.633 17.354C45.7977 19.8529 43.443 22.7843 41.5689 26.1481C39.6947 29.512 38.4693 33.1882 37.8926 37.1768H37.6764C37.6283 37.1768 37.5562 37.1528 37.4601 37.1047C33.6157 37.1528 30.0116 37.8976 26.6477 39.3393C23.2838 40.7809 20.3525 42.7272 17.8536 45.178C15.3547 47.6288 13.3845 50.5602 11.9428 53.9721C10.5011 57.384 9.78032 60.9882 9.78032 64.7845C9.78032 68.629 10.5011 72.2091 11.9428 75.5249C13.3845 78.8407 15.3547 81.7721 17.8536 84.319C20.3525 86.8659 23.2838 88.8602 26.6477 90.3019C30.0116 91.7435 33.6157 92.4643 37.4601 92.4643H40.7039C41.8572 94.9152 43.2748 97.1497 44.9567 99.1681C46.6387 101.186 48.5369 102.988 50.6513 104.574C52.7657 106.16 55.0243 107.458 57.4271 108.467C59.8298 109.476 62.4008 110.173 65.1399 110.557V101.258C62.4488 100.682 59.974 99.6967 57.7154 98.3031C55.4568 96.9095 53.5106 95.2275 51.8767 93.2573C50.2428 91.287 48.9694 89.0284 48.0563 86.4815C47.1433 83.9345 46.6867 81.3155 46.6867 78.6244H55.9133C55.9133 80.0661 56.1296 81.4597 56.5621 82.8052C56.9946 84.1508 57.6193 85.4243 58.4362 86.6256C59.2532 87.827 60.2143 88.8362 61.3196 89.6531C62.4248 90.4701 63.6983 91.1428 65.1399 91.6714V64.7845H74.3665V91.6714C75.7601 91.1909 77.0096 90.5181 78.1149 89.6531C79.2201 88.7881 80.2053 87.779 81.0703 86.6256C81.9352 85.4723 82.56 84.2229 82.9444 82.8773C83.3288 81.5318 83.5451 80.1142 83.5932 78.6244H92.8198C92.8198 81.3636 92.3632 83.9826 91.4502 86.4815C90.5371 88.9803 89.2637 91.2149 87.6298 93.1852C85.9959 95.1554 84.0497 96.8614 81.7911 98.3031C79.5325 99.7447 77.0576 100.73 74.3665 101.258V110.557C77.0096 110.173 79.5565 109.476 82.0073 108.467C84.4581 107.458 86.7408 106.184 88.8552 104.646C90.9696 103.109 92.8678 101.307 94.5497 99.2401C96.2317 97.1738 97.6493 94.9152 98.8026 92.4643H102.046Z" fill="#DEBE80"/>
</svg>
