<svg width="113" height="158" viewBox="0 0 113 158" fill="none" xmlns="http://www.w3.org/2000/svg">
<path d="M79.2475 154.156L77.1584 157.293C77.7263 157.671 78.386 157.888 79.0673 157.92C79.7486 157.953 80.426 157.8 81.0274 157.478C81.6287 157.156 82.1314 156.677 82.4821 156.092C82.8327 155.507 83.018 154.838 83.0184 154.156H79.2475ZM56.6221 139.072L58.7111 135.935C58.0923 135.523 57.3655 135.303 56.6221 135.303C55.8787 135.303 55.1519 135.523 54.533 135.935L56.6221 139.072ZM33.9966 154.156H30.2257C30.2261 154.838 30.4114 155.507 30.7621 156.092C31.1127 156.677 31.6154 157.156 32.2168 157.478C32.8181 157.8 33.4955 157.953 34.1768 157.92C34.8581 157.888 35.5179 157.671 36.0857 157.293L33.9966 154.156ZM81.3366 151.018L58.7111 135.935L54.533 142.21L77.1584 157.293L81.3366 151.018ZM54.533 135.935L31.9076 151.018L36.0857 157.293L58.7111 142.21L54.533 135.935ZM65.2423 11.7213L65.5591 12.0984L71.2984 7.21129L70.9817 6.8342L65.2423 11.7213ZM81.4271 18.6748L81.9173 18.6296L81.3139 11.1179L80.8237 11.1557L81.4271 18.6748ZM94.0973 30.8171L94.0671 31.3074L101.579 31.9107L101.616 31.4205L94.0973 30.8171ZM100.636 47.1753L101.013 47.4996L105.9 41.7528L105.523 41.436L100.636 47.1753ZM101.013 64.7326L100.636 65.0494L105.523 70.7887L105.9 70.472L101.013 64.7326ZM94.0671 80.9174L94.1048 81.4076L101.616 80.8042L101.579 80.314L94.0671 80.9174ZM81.9248 93.5876L81.4271 93.5499L80.8237 101.069L81.3139 101.107L81.9248 93.5876ZM65.5591 100.126L65.2348 100.503L70.9817 105.391L71.2984 105.013L65.5591 100.126ZM48.0093 100.503L47.685 100.126L41.9457 105.013L42.2625 105.391L48.0093 100.503ZM31.8171 93.5574L31.3268 93.5951L31.9302 101.107L32.4204 101.069L31.8171 93.5574ZM19.1468 81.4151L19.1845 80.9174L11.6654 80.314L11.6276 80.8042L19.1468 81.4151ZM12.6081 65.0494L12.231 64.7251L7.3439 70.472L7.72099 70.7887L12.6081 65.0494ZM12.231 47.4996L12.6081 47.1753L7.72099 41.436L7.3439 41.7528L12.231 47.4996ZM19.1845 31.3074L19.1393 30.8171L11.6276 31.4205L11.6654 31.9107L19.1845 31.3074ZM31.3268 18.6371L31.8171 18.6748L32.4204 11.1557L31.9302 11.1179L31.3268 18.6371ZM47.6926 12.0984L48.0018 11.7213L42.2625 6.8342L41.9457 7.21129L47.6926 12.0984ZM31.8171 18.6748C34.795 18.9148 37.7874 18.4437 40.5476 17.3003C43.3077 16.1569 45.7567 14.374 47.6926 12.0984L41.9457 7.21129C40.784 8.57636 39.3146 9.64585 37.6585 10.3316C36.0024 11.0174 34.2071 11.2998 32.4204 11.1557L31.8171 18.6748ZM19.1393 30.8171C19.0075 29.1845 19.2393 27.5427 19.8042 26.0052C20.3691 24.4678 21.2611 23.0713 22.4186 21.9124C23.5761 20.7534 24.9714 19.8597 26.5082 19.2929C28.045 18.7261 29.6865 18.4998 31.3193 18.6296L31.9302 11.1179C29.2086 10.8995 26.4644 11.2748 23.902 12.2178C21.3397 13.1609 19.0127 14.6492 17.082 16.5799C15.1513 18.5105 13.663 20.8375 12.72 23.3999C11.7769 25.9622 11.4092 28.6988 11.6276 31.4205L19.1393 30.8171ZM12.6081 47.1753C14.8837 45.2394 16.6666 42.798 17.81 40.0379C18.9534 37.2777 19.4245 34.2853 19.1845 31.3074L11.6654 31.9107C11.8095 33.6974 11.5271 35.4927 10.8413 37.1488C10.1556 38.8049 9.08606 40.2743 7.72099 41.436L12.6081 47.1753ZM12.231 64.7251C10.9839 63.6631 9.98236 62.3429 9.29554 60.8559C8.60871 59.3688 8.253 57.7504 8.253 56.1124C8.253 54.4744 8.60871 52.8559 9.29554 51.3688C9.98236 49.8818 10.9839 48.5616 12.231 47.4996L7.3439 41.7528C5.26374 43.5228 3.59297 45.7236 2.44719 48.203C1.30142 50.6823 0.708008 53.381 0.708008 56.1124C0.708008 58.8437 1.30142 61.5424 2.44719 64.0217C3.59297 66.5011 5.26374 68.7019 7.3439 70.472L12.231 64.7251ZM19.1845 80.9174C19.4233 77.9406 18.9516 74.9497 17.8082 72.191C16.6649 69.4322 14.8826 66.9845 12.6081 65.0494L7.72099 70.7887C9.08606 71.9504 10.1556 73.4198 10.8413 75.0759C11.5271 76.732 11.8095 78.5274 11.6654 80.314L19.1845 80.9174ZM31.3268 93.5876C29.6935 93.7196 28.051 93.4951 26.513 92.9298C24.9749 92.3644 23.5781 91.4717 22.419 90.3134C21.2599 89.1551 20.3664 87.7587 19.8001 86.221C19.2338 84.6833 19.0083 83.041 19.1393 81.4076L11.6276 80.8042C11.408 83.5265 11.7825 86.2639 12.725 88.8272C13.6675 91.3905 15.1557 93.7184 17.0865 95.65C19.0173 97.5815 21.3447 99.0705 23.9076 100.014C26.4706 100.957 29.2079 101.333 31.9302 101.114L31.3268 93.5876ZM65.2348 100.503C64.1728 101.75 62.8526 102.752 61.3656 103.439C59.8785 104.126 58.2601 104.481 56.6221 104.481C54.9841 104.481 53.3656 104.126 51.8786 103.439C50.3915 102.752 49.0713 101.75 48.0093 100.503L42.2625 105.391C44.0325 107.471 46.2333 109.141 48.7127 110.287C51.192 111.433 53.8908 112.026 56.6221 112.026C59.3534 112.026 62.0521 111.433 64.5314 110.287C67.0108 109.141 69.2116 107.471 70.9817 105.391L65.2348 100.503ZM94.1048 81.4076C94.2369 83.0416 94.0123 84.6848 93.4466 86.2234C92.8808 87.762 91.9874 89.1593 90.8282 90.3185C89.669 91.4777 88.2717 92.3711 86.7331 92.9369C85.1945 93.5026 83.5513 93.7272 81.9173 93.5951L81.3139 101.107C84.0362 101.326 86.7736 100.952 89.3369 100.009C91.9002 99.0669 94.2281 97.5787 96.1597 95.6479C98.0912 93.7171 99.5802 91.3897 100.524 88.8268C101.467 86.2639 101.835 83.5266 101.616 80.8042L94.1048 81.4076ZM100.636 65.0419C98.3618 66.9785 96.5803 69.4278 95.4382 72.1879C94.2962 74.948 93.8262 77.94 94.0671 80.9174L101.579 80.314C101.435 78.5274 101.717 76.732 102.403 75.0759C103.089 73.4198 104.158 71.9504 105.523 70.7887L100.636 65.0419ZM101.013 47.4996C102.26 48.5616 103.262 49.8818 103.949 51.3688C104.635 52.8559 104.991 54.4744 104.991 56.1124C104.991 57.7504 104.635 59.3688 103.949 60.8559C103.262 62.3429 102.26 63.6706 101.013 64.7326L105.9 70.472C107.98 68.7019 109.651 66.5011 110.797 64.0217C111.943 61.5424 112.536 58.8437 112.536 56.1124C112.536 53.381 111.943 50.6823 110.797 48.203C109.651 45.7236 107.98 43.5228 105.9 41.7528L101.013 47.4996ZM94.0671 31.3074C93.8274 34.2835 94.298 37.274 95.44 40.0327C96.5821 42.7914 98.3629 45.2394 100.636 47.1753L105.523 41.436C104.158 40.2743 103.089 38.8049 102.403 37.1488C101.717 35.4927 101.435 33.6974 101.579 31.9107L94.0671 31.3074ZM81.9248 18.6371C83.5575 18.5063 85.1992 18.7316 86.7363 19.2975C88.2734 19.8633 89.6694 20.7562 90.8276 21.9144C91.9858 23.0726 92.8787 24.4685 93.4445 26.0056C94.0103 27.5428 94.2281 29.1844 94.0973 30.8171L101.616 31.4205C101.835 28.6982 101.467 25.9608 100.524 23.3979C99.5802 20.835 98.0912 18.5076 96.1597 16.5768C94.2281 14.646 91.9002 13.1578 89.3369 12.2153C86.7736 11.2728 84.0362 10.8983 81.3139 11.1179L81.9248 18.6371ZM65.5591 12.0984C67.4942 14.3729 69.9419 16.1552 72.7007 17.2985C75.4594 18.4419 78.4503 18.9136 81.4271 18.6748L80.8237 11.1557C79.0371 11.2998 77.2417 11.0174 75.5856 10.3316C73.9295 9.64585 72.4601 8.57636 71.2984 7.21129L65.5591 12.0984ZM70.9817 6.8342C69.2116 4.75403 67.0108 3.08326 64.5314 1.93749C62.0521 0.791719 59.3534 0.198303 56.6221 0.198303C53.8908 0.198303 51.192 0.791719 48.7127 1.93749C46.2333 3.08326 44.0325 4.75403 42.2625 6.8342L48.0018 11.7213C49.0638 10.4742 50.3915 9.47266 51.8786 8.78583C53.3656 8.099 54.9841 7.7433 56.6221 7.7433C58.2601 7.7433 59.8785 8.099 61.3656 8.78583C62.8526 9.47266 64.1803 10.4742 65.2423 11.7213L70.9817 6.8342ZM47.6926 100.126C46.0129 98.1533 43.9445 96.5477 41.6166 95.4097C39.2887 94.2717 36.7512 93.6182 34.1626 93.5046L33.8307 101.046C35.3833 101.115 36.9051 101.502 38.3013 102.185C39.6975 102.867 40.9381 103.83 41.9457 105.013L47.6926 100.126ZM34.1626 93.5046C33.3807 93.4684 32.5974 93.4885 31.8171 93.5499L32.4204 101.069C32.8955 101.031 33.3631 101.024 33.8307 101.046L34.1626 93.5046ZM37.7675 154.156V97.2755H30.2257V154.156H37.7675ZM81.4346 93.5499C80.6518 93.4882 79.8659 93.4756 79.0816 93.5122L79.4134 101.046C79.881 101.024 80.3486 101.031 80.8237 101.069L81.4346 93.5499ZM79.0816 93.5122C76.4942 93.6268 73.9581 94.2732 71.6316 95.4112C69.3051 96.5491 67.2379 98.1542 65.5591 100.126L71.2984 105.013C72.306 103.83 73.5466 102.867 74.9428 102.185C76.339 101.502 77.8608 101.115 79.4134 101.046L79.0816 93.5122ZM75.4766 97.2831V154.156H83.0184V97.2755L75.4766 97.2831Z" fill="#DEBE80"/>
<path d="M71.7073 48.5706L49.0818 71.196L41.54 63.6542" stroke="#DEBE80" stroke-width="7.54181" stroke-linecap="round" stroke-linejoin="round"/>
</svg>
